<svg width="44" height="45" fill="none" version="1.1" viewBox="0 0 44 45" xmlns="http://www.w3.org/2000/svg"><g fill="#fff" fill-rule="evenodd" stroke="#202020" stroke-linecap="round" stroke-linejoin="round" stroke-width="1.5"><path d="m36.038 27.419c1.46-8.3402-1.2498-14.366-7.7561-17.196-2.9194-1.2699-7.0502-0.1756-10.049 1.5663l2.7007 3.7701-8.6005 0.50912c-6.5077 0.38523-5.8333 0.64934-3.9638-4.4278l3.4372-9.1688 2.926 4.1945c4.6129-3.1073 10.683-3.7995 15.232-1.6209 8.3251 3.9875 10.965 13.05 8.4335 22.498-0.59098 2.2056-2.6943 1.7851-2.3599-0.12512z" color="#000000" color-rendering="auto" dominant-baseline="auto" image-rendering="auto" shape-rendering="auto" solid-color="#000000" style="font-feature-settings:normal;font-variant-alternates:normal;font-variant-caps:normal;font-variant-ligatures:normal;font-variant-numeric:normal;font-variant-position:normal;isolation:auto;mix-blend-mode:normal;paint-order:normal;shape-padding:0;text-decoration-color:#000000;text-decoration-line:none;text-decoration-style:solid;text-indent:0;text-orientation:mixed;text-transform:none;white-space:normal"/><rect x="12.122" y="21.306" width="21.122" height="16.102" display="none" style="paint-order:normal"/><g style="paint-order:normal"><g transform="translate(.076531 .9949)" fill="#fff" fill-rule="evenodd" stroke="#202020" stroke-linejoin="round" stroke-width="1.5"><path d="m32.536 20.842-11.805-2.3413-12.143 2.5123 11.821 3.3647z" points="20.730994,18.500556 8.5882108,21.012865 20.409684,24.377602 32.535927,20.841875 "/><path d="m32.536 33.922v-13.08l-12.126 3.5357v15.888z" points="32.535927,20.841875 20.409684,24.377602 20.409684,40.265197 32.535927,33.921824 "/><path d="m20.41 40.265-11.821-6.0929v-13.159l11.821 3.3647z" points="8.5882108,34.172274 8.5882108,21.012865 20.409684,24.377602 20.409684,40.265197 "/></g></g></g></svg>
