<svg width="44" height="45" fill="none" version="1.1" viewBox="0 0 44 45" xmlns="http://www.w3.org/2000/svg"><path d="m34.518 17.956h1.0432c0.5533 0 1.084-0.2198 1.4752-0.611 0.3913-0.3913 0.6111-0.922 0.6111-1.4753s-0.2198-1.084-0.6111-1.4753c-0.3912-0.3912-0.9219-0.611-1.4752-0.611h-10.432c0.6972-3.0808 1.0471-6.2299 1.0432-9.3885 0-0.55333-0.2198-1.084-0.6111-1.4753s-0.9219-0.61107-1.4753-0.61107c-0.5533 0-1.084 0.21981-1.4752 0.61107-0.3913 0.39126-0.6111 0.92193-0.6111 1.4753 0 0-0.9388 10.38-7.3021 11.371" fill="#fff"/><path d="m14.698 28.388h1.0431c2.0864 0 6.259 2.0863 8.3453 2.0863h8.3454c0.5533 0 1.084-0.2198 1.4752-0.6111 0.3913-0.3912 0.6111-0.9219 0.6111-1.4752s-0.2198-1.084-0.6111-1.4753c-0.3912-0.3912-0.9219-0.611-1.4752-0.611h1.0431c0.5534 0 1.084-0.2199 1.4753-0.6111 0.3913-0.3913 0.6111-0.9219 0.6111-1.4753 0-0.5533-0.2198-1.084-0.6111-1.4752-0.3913-0.3913-0.9219-0.6111-1.4753-0.6111h1.0432c0.5533 0 1.084-0.2198 1.4753-0.6111 0.3912-0.3912 0.611-0.9219 0.611-1.4752 0-0.5534-0.2198-1.084-0.611-1.4753-0.3913-0.3913-0.922-0.6111-1.4753-0.6111h1.0432c0.5533 0 1.084-0.2198 1.4752-0.611 0.3913-0.3913 0.6111-0.922 0.6111-1.4753s-0.2198-1.084-0.6111-1.4753c-0.3912-0.3912-0.9219-0.611-1.4752-0.611h-10.432c0.6972-3.0808 1.0471-6.2299 1.0432-9.3885 0-0.55333-0.2198-1.084-0.6111-1.4753s-0.9219-0.61107-1.4753-0.61107c-0.5533 0-1.084 0.21981-1.4752 0.61107-0.3913 0.39126-0.6111 0.92193-0.6111 1.4753 0 0-0.9388 10.38-7.3021 11.371v12.622z" fill="#fff"/><g stroke="#202020" stroke-miterlimit="10" stroke-width="1.5"><path d="m14.698 28.388h1.0431c2.0864 0 6.259 2.0863 8.3453 2.0863h8.3454c0.5533 0 1.084-0.21984 1.4752-0.6111 0.9283-0.92837 0.8208-2.1297 0-2.9505-0.3912-0.3912-0.9219-0.611-1.4752-0.611h1.0431c2.0966 0 2.7977-2.2392 1.4753-3.5616-0.3913-0.3913-0.9219-0.6111-1.4753-0.6111h1.0432c2.1578 0 2.6723-2.3646 1.4753-3.5616-0.3913-0.3913-0.922-0.6111-1.4753-0.6111h1.0432c2.146 0 2.7521-2.2847 1.4752-3.5616-0.3912-0.3912-0.9219-0.611-1.4752-0.611h-10.432c0.6972-3.0808 1.0465-6.2299 1.0432-9.3885-5.81e-4 -0.55333-0.19125-1.1148-0.6111-1.4753-1.0537-0.90461-2.1659-0.78462-2.9505 0-0.39129 0.39127-0.6111 0.92193-0.6111 1.4753 0 0.53227-0.9388 10.38-7.3021 11.371z" stroke-linejoin="round"/><path d="m6.3525 31.517 8.3454-1.0431v-16.691h-8.3454v17.734z" fill="#fff" stroke-linejoin="round"/><path d="m10.526 26.823c0.288 0 0.5216-0.2336 0.5216-0.5216 0-0.2881-0.2336-0.5216-0.5216-0.5216-0.2881 0-0.5216 0.2335-0.5216 0.5216 0 0.288 0.2335 0.5216 0.5216 0.5216z"/></g><g fill="#fff" stroke="#1F1F1F" stroke-linecap="round" stroke-linejoin="round" stroke-miterlimit="10" stroke-width=".7"><path d="m5.1056 40.866-2.0306 1.4214 0.83611-2.377-1.9111-1.4333h2.3889l0.71667-2.2695 0.71667 2.2695h2.3889l-1.7917 1.4333 0.71667 2.4008-2.0306-1.4452z"/><path d="m13.553 40.866-2.0305 1.4214 0.8361-2.377-1.9111-1.4333h2.3889l0.7166-2.2695 0.7167 2.2695h2.3889l-1.7917 1.4333 0.7167 2.4008-2.0306-1.4452z"/><path d="m22 40.866-2.0306 1.4214 0.8362-2.377-1.9112-1.4333h2.3889l0.7167-2.2695 0.7167 2.2695h2.3889l-1.7917 1.4333 0.7167 2.4008-2.0306-1.4452z"/><path d="m30.447 40.866-2.0306 1.4214 0.8361-2.377-1.9111-1.4333h2.3889l0.7167-2.2695 0.7166 2.2695h2.3889l-1.7916 1.4333 0.7166 2.4008-2.0305-1.4452z"/><path d="m38.894 40.866-2.0305 1.4214 0.8361-2.377-1.9111-1.4333h2.3889l0.7166-2.2695 0.7167 2.2695h2.3889l-1.7917 1.4333 0.7167 2.4008-2.0306-1.4452z"/></g></svg>
