<svg width="44" height="45" fill="none" version="1.1" viewBox="0 0 44 45" xmlns="http://www.w3.org/2000/svg" xmlns:xlink="http://www.w3.org/1999/xlink"><path d="m14.382 37.76 1.7088 6.0691 20.804-5.5925-5.3022-19.721c-0.31701-1.1791-1.096-2.8836-2.0456-3.6528l-5.6494-4.5759" fill="#fff" fill-rule="evenodd" stroke="#202020" stroke-linecap="round" stroke-linejoin="round" stroke-width="1.5" style="paint-order:normal"/><path d="m15.639 9.0714-5.638 7.0222c-0.7648 0.95258-0.99721 2.2779-1.1027 3.4942l-1.7924 20.668 20.209 1.7469 1.7924-20.668c0.10548-1.2163 0.10471-2.5618-0.48472-3.6314l-4.3452-7.8852c-1.6802-3.0491-6.7928-3.045-8.6381-0.74671zm4.1371 2.4715c1.5248 0.13181 2.6529 1.4716 2.5209 2.9939-0.13203 1.5224-1.4743 2.6524-2.9991 2.5206-1.5248-0.13181-2.6526-1.4754-2.5205-2.9978 0.13203-1.5224 1.474-2.6486 2.9988-2.5168z" fill="#fff" fill-rule="evenodd" stroke="#202020" stroke-linecap="round" stroke-linejoin="round" stroke-width="1.5" style="paint-order:normal"/><g transform="matrix(1.0772 -.27682 .27727 1.0755 -5.1488 5.4399)"><ellipse id="path834" transform="rotate(24.311)" cx="20.557" cy="13.58" rx="2.2232" ry="2.3382" fill="none" stroke="#202020" stroke-linecap="round" stroke-linejoin="round" stroke-width="1.0797" style="paint-order:normal"/><use transform="translate(4.4276 9.1926)" width="100%" height="100%" stroke-width=".75374" xlink:href="#path834"/><path d="m9.9397 29.234 10.898-7.8274" fill="none" stroke="#202020" stroke-linecap="round" stroke-linejoin="round" stroke-width="1.0797" style="paint-order:normal"/></g><path d="m18.402 13.638c-3.5476-1.8101-4.6029-5.5159-4.2-7.9689 0.47522-2.8937 2.8928-4.9492 4.9321-4.4131 2.6735 0.70279 3.082 3.4329 2.3136 5.9437" fill="none" stroke="#202020" stroke-linecap="round" stroke-linejoin="round" stroke-width="1.5" style="paint-order:normal"/></svg>
