<svg width="44" height="45" fill="none" version="1.1" viewBox="0 0 44 45" xmlns="http://www.w3.org/2000/svg"><g fill="#fff" stroke="#202020" stroke-width="1.5"><path d="m41.943 25.834h-3e-4v-3.3334l-5.3334-4.6666h-5.3333v8"/><path d="m11.275 25.834 6e-4 -14.667h19.999v14.34" stroke-linecap="round" stroke-linejoin="round" stroke-miterlimit="10"/><path d="m39.276 31.167h2.6667v-5.3333l-30.667 1.5e-4 1.5e-4 5.3332h2.6667m20.001 0h-14.667" stroke-linecap="round" stroke-linejoin="round" stroke-miterlimit="10"/></g><g transform="translate(-.056842 -5.81)" fill="#fff" stroke="#202020" stroke-linecap="round" stroke-linejoin="round" stroke-miterlimit="10" stroke-width="1.5"><path d="m16.667 39.643c1.4727 0 2.6666-1.1939 2.6666-2.6667 0-1.4727-1.1939-2.6666-2.6666-2.6666-1.4728 0-2.6667 1.1939-2.6667 2.6666 0 1.4728 1.1939 2.6667 2.6667 2.6667z"/><path d="m36.667 39.643c1.4727 0 2.6666-1.1939 2.6666-2.6667 0-1.4727-1.1939-2.6666-2.6666-2.6666-1.4728 0-2.6667 1.1939-2.6667 2.6666 0 1.4728 1.1939 2.6667 2.6667 2.6667z"/></g><g stroke="#202020" stroke-linecap="round" stroke-linejoin="round" stroke-width="1.5"><path d="m3.7134 19.788h3.9777" stroke-miterlimit="10"/><path d="m5.359 25.834h2.3321" stroke-miterlimit="10"/><path d="m2.0675 13.698h5.6233" fill="none" style="paint-order:normal"/></g></svg>
