<svg width="44" height="45" fill="none" version="1.1" viewBox="0 0 44 45" xmlns="http://www.w3.org/2000/svg"><g transform="translate(-.45309 .055974)" fill="#fff" fill-rule="evenodd" stroke="#202020" stroke-linejoin="round" stroke-width="1.5"><path d="m24.433 16.906-17.023 16.439c-3.4273 3.2408 1.5055 8.3478 4.8633 5.0352l17.254-16.662" color="#000000" color-rendering="auto" dominant-baseline="auto" image-rendering="auto" shape-rendering="auto" solid-color="#000000" stroke-linecap="round" style="font-feature-settings:normal;font-variant-alternates:normal;font-variant-caps:normal;font-variant-ligatures:normal;font-variant-numeric:normal;font-variant-position:normal;isolation:auto;mix-blend-mode:normal;paint-order:normal;shape-padding:0;text-decoration-color:#000000;text-decoration-line:none;text-decoration-style:solid;text-indent:0;text-orientation:mixed;text-transform:none;white-space:normal"/><path d="m40.835 13.5c0.14863 4.6299-3.5489 8.4769-8.1798 8.5902-4.6309 0.11333-8.4769-3.5489-8.5902-8.1798-0.11333-4.6309 3.5489-8.4769 8.1798-8.5902 1.585-0.038792 2.7713 0.26201 3.6165 0.77953l-4.8393 5.0271c-1.225 1.2725 2.9404 5.2947 4.1716 4.0157l4.8393-5.0271c0.52739 1.3532 0.76945 2.365 0.80218 3.3845z" stroke-linecap="round" style="paint-order:normal"/><path d="m11.26 14.678 9.4902 9.2422 1.7441-1.791-9.4903-9.2422" color="#000000" color-rendering="auto" dominant-baseline="auto" image-rendering="auto" shape-rendering="auto" solid-color="#000000" stroke-linecap="square" style="font-feature-settings:normal;font-variant-alternates:normal;font-variant-caps:normal;font-variant-ligatures:normal;font-variant-numeric:normal;font-variant-position:normal;isolation:auto;mix-blend-mode:normal;paint-order:normal;shape-padding:0;text-decoration-color:#000000;text-decoration-line:none;text-decoration-style:solid;text-indent:0;text-orientation:mixed;text-transform:none;white-space:normal"/><path d="m23.531 21.957c-3.141 0.07257-4.6033 3.926-2.3013 6.0641l11.017 10.449c3.3761 3.3938 8.3787-1.8417 4.8348-5.0599l-11.017-10.449c-0.67417-0.66325-1.588-1.0255-2.5335-1.0042z" color="#000000" color-rendering="auto" dominant-baseline="auto" image-rendering="auto" shape-rendering="auto" solid-color="#000000" stroke-linecap="round" style="font-feature-settings:normal;font-variant-alternates:normal;font-variant-caps:normal;font-variant-ligatures:normal;font-variant-numeric:normal;font-variant-position:normal;isolation:auto;mix-blend-mode:normal;paint-order:normal;shape-padding:0;text-decoration-color:#000000;text-decoration-line:none;text-decoration-style:solid;text-indent:0;text-orientation:mixed;text-transform:none;white-space:normal"/><path d="m12.85 12.746-0.03489-4.0777-5.8251-3.0108-2.9232 2.8931 2.951 5.8553 4.0662 0.10421" stroke-linecap="round" style="paint-order:normal"/></g></svg>
