<svg width="44" height="45" fill="none" version="1.1" viewBox="0 0 44 45" xmlns="http://www.w3.org/2000/svg"><path d="m12.239 25.936-5.1518 12.676 5.9653-0.7456 3.7283 4.6095 4.3384-12.608-8.8802-3.9317zm19.523 0 5.1519 12.676-5.9653-0.7456-3.6605 4.6095-4.4062-12.608" fill="#fff"/><g stroke="#202020" stroke-linecap="round" stroke-linejoin="round" stroke-miterlimit="10" stroke-width="1.5"><path d="m31.761 25.936 5.1519 12.676-5.9653-0.7456-3.6605 4.6095-4.4062-12.608m-10.643-3.9317-5.1518 12.676 5.9653-0.7456 3.7283 4.6095 4.3384-12.608"/><path d="m22 3.9058 3.0504-1.7625 2.1014 2.8471 3.4572-0.33893 0.7457 3.3894 3.3215 1.1524-0.6778 3.3893 2.5759 2.3726-2.0336 2.847 1.4235 3.2538-3.0504 1.7625v3.4571l-3.525 0.4068-1.4235 3.186-3.3216-1.0168-2.6437 2.3047-2.6437-2.3047-3.3215 1.0168-1.4236-3.186-3.5249-0.4068v-3.4571l-3.0504-1.7625 1.4235-3.2538-2.0336-2.847 2.5759-2.3726-0.67788-3.3893 3.3216-1.1524 0.7457-3.3894 3.4571 0.33893 2.1014-2.8471 3.0504 1.7625z" fill="#fff"/><path d="m22 24.513c4.4925 0 8.1344-3.642 8.1344-8.1345s-3.6419-8.1345-8.1344-8.1345c-4.4926 0-8.1345 3.642-8.1345 8.1345s3.6419 8.1345 8.1345 8.1345z"/></g></svg>
